<?xml version="1.0" encoding="UTF-8"?>
<svg id="primer" xmlns="http://www.w3.org/2000/svg" version="1.1" viewBox="0 20 595.3 250">
  <defs>
    <style>
      .st0 {
        fill: #fff;
      }

      .st1 {
        fill: #25499c;
      }
    </style>
  </defs>
  <g>
    <g>
      <path class="st1" d="M109.2,30.8c2.5,0,4.6.9,6.5,2.7,1.8,1.8,2.7,3.9,2.7,6.3v214.6c0,2.4-.9,4.5-2.7,6.3-1.8,1.8-4,2.7-6.5,2.7H13.8c-2.5,0-4.7-.9-6.5-2.7-1.8-1.8-2.7-3.9-2.7-6.3V39.8c0-2.4.9-4.5,2.7-6.3,1.8-1.8,4-2.7,6.5-2.7h37.4c2.5,0,4.6.8,6.3,2.5,1.7,1.7,2.6,3.7,2.6,6.1v130.9c0,1.1.5,1.7,1.4,1.7s1.7-.6,1.7-1.7V39.4c0-2.4.8-4.5,2.4-6.1,1.6-1.7,3.6-2.5,6.1-2.5h37.4Z"/>
      <path class="st1" d="M226.3,30.8c2.5,0,4.6.9,6.5,2.7,1.8,1.8,2.7,3.9,2.7,6.3v214.6c0,2.4-.9,4.5-2.7,6.3-1.8,1.8-4,2.7-6.5,2.7h-42.2c-3.2,0-5.3-1.4-6.5-4.3l-35.4-90c-.5-.7-1.1-.9-2-.7-.7.4-.9,1.1-.7,2l33,84c.9,2.2.7,4.3-.5,6.1-1.3,1.9-3.1,2.8-5.6,2.8h-35.4c-2.5,0-4.7-.9-6.5-2.7-1.8-1.8-2.7-3.9-2.7-6.3V39.8c0-2.4.9-4.5,2.7-6.3,1.8-1.8,4-2.7,6.5-2.7h42.2c3.2,0,5.3,1.4,6.5,4.3l35.4,90c0,.7.5,1,1.4,1s.3,0,.3-.2.1-.2.3-.2c.7-.4.9-1.1.7-2l-33-84c-.9-2.2-.7-4.3.5-6.1,1.2-1.9,3.1-2.8,5.6-2.8h35.4Z"/>
      <path class="st1" d="M348.8,257c.5,1.6.1,3-1,4.3-1.1,1.3-2.6,2-4.4,2h-95.3c-2.5,0-4.7-.9-6.5-2.7-1.8-1.8-2.7-3.9-2.7-6.3V39.8c0-2.4.9-4.5,2.7-6.3,1.8-1.8,4-2.7,6.5-2.7h95.3c2.5,0,4.6.9,6.5,2.7,1.8,1.8,2.7,3.9,2.7,6.3v31.9c0,2-.7,3.7-2,5-1.4,1.3-3.1,2-5.1,2h-18.4c-.9,0-1.4.6-1.4,1.7s.6,1.3,1.7,1.3h18c2,0,3.7.7,5.1,2,1.4,1.3,2,3,2,5v36.9c0,2-.7,3.7-2,5-1.4,1.3-3.1,2-5.1,2h-19.1c-.9.2-1.4.8-1.4,1.7l23.8,122.9Z"/>
      <path class="st1" d="M460.5,30.8c2.5,0,4.6.9,6.5,2.7,1.8,1.8,2.7,3.9,2.7,6.3,0,4.9-.9,9.4-2.7,13.6-1.8,4.2-4.4,7.9-7.7,11-3.3,3.1-7.1,5.6-11.4,7.5-4.3,1.9-9,2.8-14,2.8h-42.2c-5,0-9.6-.9-14-2.8-4.3-1.9-8.1-4.4-11.2-7.5-3.2-3.1-5.7-6.8-7.7-11-1.9-4.2-2.9-8.7-2.9-13.6s.9-4.5,2.7-6.3c1.8-1.8,4-2.7,6.5-2.7h95.3ZM356,77.6h113.7v176.7c0,2.4-.9,4.5-2.7,6.3-1.8,1.8-4,2.7-6.5,2.7h-95.3c-2.5,0-4.7-.9-6.5-2.7-1.8-1.8-2.7-3.9-2.7-6.3V77.6Z"/>
      <path class="st1" d="M579.3,161.7c2,0,3.8.7,5.3,2.2,1.5,1.4,2.2,3.2,2.2,5.1v85.4c0,2.4-.9,4.5-2.7,6.3-1.8,1.8-4,2.7-6.5,2.7h-95.3c-2.5,0-4.7-.9-6.5-2.7-1.8-1.8-2.7-3.9-2.7-6.3V39.8c0-2.4.9-4.5,2.7-6.3,1.8-1.8,4-2.7,6.5-2.7h95.3c1.8,0,3.3.7,4.6,2.2,1.2,1.4,1.6,3,1.2,4.8l-23.5,122.2c0,.9.5,1.4,1.4,1.7h18Z"/>
    </g>
    <g>
      <path class="st1" d="M113.8,494.4c.2,1.3-.1,2.5-1,3.5-.9,1-1.9,1.5-3.1,1.5H14.4c-1.1,0-2.2-.5-3.1-1.5-.9-1-1.3-2.2-1-3.5l20.4-153.8c.7-1.1.2-1.7-1.4-1.7H9.6c-3,0-4.4-1.4-4.4-4.3v-58.8c0-2.4.9-4.5,2.7-6.3,1.8-1.8,4-2.7,6.5-2.7h95.3c2.5,0,4.6.9,6.5,2.7,1.8,1.8,2.7,3.9,2.7,6.3v58.8c0,2.9-1.5,4.3-4.4,4.3h-19.7c-1.4,0-1.8.6-1.4,1.7l20.4,153.8Z"/>
      <path class="st1" d="M209.1,382.8c-.5,1.1,0,1.7,1.4,1.7h17c2.5,0,4.5.8,6.1,2.3,1.6,1.6,2.4,3.5,2.4,6v97.7c0,2.4-.9,4.5-2.7,6.3-1.8,1.8-4,2.7-6.5,2.7h-95.3c-2.5,0-4.7-.9-6.5-2.7-1.8-1.8-2.7-3.9-2.7-6.3v-214.6c0-2.4.9-4.5,2.7-6.3,1.8-1.8,4-2.7,6.5-2.7h95.3c2.5,0,4.6.9,6.5,2.7,1.8,1.8,2.7,3.9,2.7,6.3v33.2c0,2.4-.8,4.4-2.4,6-1.6,1.6-3.6,2.3-6.1,2.3h-17c-1.4,0-1.8.6-1.4,1.7,0,.9.5,1.3,1.4,1.3h17c2.5,0,4.5.8,6.1,2.3,1.6,1.6,2.4,3.5,2.4,6v44.5c0,2.4-.8,4.4-2.4,6-1.6,1.6-3.6,2.3-6.1,2.3h-17c-.9,0-1.4.4-1.4,1.3Z"/>
      <path class="st1" d="M333,373.5c-.9,0-1.4.4-1.4,1.3s.5,1.7,1.4,1.7h8.5c3.2,0,5.9,1.1,8.2,3.3,2.3,2.2,3.4,4.9,3.4,8v102.6c0,2.4-.9,4.5-2.7,6.3-1.8,1.8-4,2.7-6.5,2.7h-37.1c-2.5,0-4.6-.9-6.3-2.7-1.7-1.8-2.6-3.9-2.6-6.3v-94.3c0-1.5-.6-2-1.7-1.3-.9,0-1.4.4-1.4,1.3v94.3c0,2.4-.9,4.5-2.7,6.3-1.8,1.8-4,2.7-6.5,2.7h-37.1c-2.5,0-4.7-.9-6.5-2.7-1.8-1.8-2.7-3.9-2.7-6.3v-214.6c0-2.4.9-4.5,2.7-6.3,1.8-1.8,4-2.7,6.5-2.7h95.3c2.5,0,4.6.9,6.5,2.7,1.8,1.8,2.7,3.9,2.7,6.3v86.4c0,3.1-1.1,5.8-3.4,8-2.3,2.2-5,3.3-8.2,3.3h-8.5ZM298,310c0-.9-.6-1.3-1.7-1.3s-1.4.4-1.4,1.3v36.2c0,.9.5,1.3,1.4,1.3s1.7-.4,1.7-1.3v-36.2Z"/>
      <path class="st1" d="M443.4,382.8c-.5,1.1,0,1.7,1.4,1.7h17c2.5,0,4.5.8,6.1,2.3,1.6,1.6,2.4,3.5,2.4,6v97.7c0,2.4-.9,4.5-2.7,6.3-1.8,1.8-4,2.7-6.5,2.7h-95.3c-2.5,0-4.7-.9-6.5-2.7-1.8-1.8-2.7-3.9-2.7-6.3v-214.6c0-2.4.9-4.5,2.7-6.3,1.8-1.8,4-2.7,6.5-2.7h95.3c2.5,0,4.6.9,6.5,2.7,1.8,1.8,2.7,3.9,2.7,6.3v33.2c0,2.4-.8,4.4-2.4,6-1.6,1.6-3.6,2.3-6.1,2.3h-17c-1.4,0-1.8.6-1.4,1.7,0,.9.5,1.3,1.4,1.3h17c2.5,0,4.5.8,6.1,2.3,1.6,1.6,2.4,3.5,2.4,6v44.5c0,2.4-.8,4.4-2.4,6-1.6,1.6-3.6,2.3-6.1,2.3h-17c-.9,0-1.4.4-1.4,1.3Z"/>
      <path class="st1" d="M553.7,266.8c9.5,0,17.5,3.2,24,9.5,6.5,6.3,9.7,14.1,9.7,23.4v166.8c0,9.3-3.2,17.1-9.7,23.4-6.5,6.3-14.5,9.5-24,9.5h-70.8c-2.5,0-4.7-.9-6.5-2.7-1.8-1.8-2.7-3.9-2.7-6.3v-214.6c0-2.4.9-4.5,2.7-6.3,1.8-1.8,4-2.7,6.5-2.7h70.8ZM532.2,313c0-.9-.6-1.3-1.7-1.3s-1.4.4-1.4,1.3v139.8c0,1.1.5,1.7,1.4,1.7s1.7-.5,1.7-1.7v-139.8Z"/>
    </g>
  </g>
</svg>
